<?xml version="1.0" standalone="no"?>
<!DOCTYPE svg PUBLIC "-//W3C//DTD SVG 20010904//EN"
 "http://www.w3.org/TR/2001/REC-SVG-20010904/DTD/svg10.dtd">
<svg version="1.0" xmlns="http://www.w3.org/2000/svg"
 width="1280.000000pt" height="910.000000pt" viewBox="0 0 1280.000000 910.000000"
 preserveAspectRatio="xMidYMid meet">
<metadata>
Created by potrace 1.15, written by Peter Selinger 2001-2017
</metadata>
<g transform="translate(0.000000,910.000000) scale(0.100000,-0.100000)"
fill="#000000" stroke="none">
<path d="M6918 8921 c-69 -56 -116 -116 -155 -196 -35 -75 -63 -183 -63 -251
l0 -40 -166 -33 c-91 -18 -167 -31 -169 -29 -2 2 -15 32 -28 68 -14 36 -30 64
-37 62 -30 -7 -230 -106 -230 -114 0 -5 7 -25 15 -44 16 -38 13 -54 -10 -54
-49 0 -892 -268 -1323 -421 -517 -184 -1025 -395 -1544 -642 l-137 -66 -27 70
c-15 38 -30 69 -34 69 -4 0 -59 -25 -123 -55 l-117 -55 29 -79 30 -78 -27 -13
c-98 -44 -793 -438 -817 -462 -7 -7 -7 -9 0 -5 18 9 878 347 885 347 12 0 51
-113 43 -120 -4 -4 -386 -143 -848 -310 -462 -167 -846 -307 -852 -313 -7 -5
-13 -21 -13 -36 0 -46 -11 -69 -35 -75 -28 -7 -28 -6 -56 -173 -20 -116 -25
-133 -46 -144 -19 -10 -23 -20 -23 -61 0 -26 -1 -51 -1 -55 -1 -4 61 -47 137
-95 l138 -88 93 0 93 0 0 -29 0 -30 -187 -3 -188 -3 -66 -32 c-71 -35 -163
-109 -153 -124 3 -5 -23 -78 -59 -162 -82 -194 -158 -397 -192 -512 -32 -110
-172 -764 -217 -1010 -30 -167 -32 -195 -31 -387 0 -171 -2 -208 -13 -208 -12
0 -14 -40 -14 -220 l0 -220 28 0 28 0 21 -352 c12 -193 20 -355 17 -360 -3 -4
-28 -8 -56 -8 -98 0 -166 -62 -176 -160 -7 -73 5 -117 45 -160 46 -52 79 -60
248 -60 135 0 146 -2 275 -40 130 -38 148 -41 462 -67 l327 -27 3 -35 3 -36
51 0 52 1 5 -131 c8 -232 82 -415 239 -598 61 -70 188 -167 277 -211 419 -210
922 -94 1201 275 70 93 131 215 160 321 23 83 39 241 32 306 l-4 42 43 0 c24
0 323 7 664 15 341 8 668 15 728 15 l107 0 0 45 c0 25 1 45 3 46 12 3 3107 48
3316 49 l273 0 -6 -22 c-37 -138 -33 -362 8 -502 128 -430 529 -717 966 -693
432 24 777 307 887 727 33 125 35 323 5 442 l-19 78 76 0 c42 0 364 5 716 11
352 6 738 11 858 10 l218 -2 29 31 c70 75 64 259 -12 330 -18 16 -35 20 -98
20 l-76 0 3 293 c2 160 6 334 9 384 6 90 7 93 30 93 l24 0 0 165 0 165 -30 0
c-30 0 -30 1 -30 55 0 30 5 55 10 55 6 0 10 45 10 115 0 108 -1 115 -20 115
-14 0 -20 7 -20 23 0 44 -138 288 -342 606 l-93 145 -98 28 c-54 15 -117 38
-140 49 -101 51 -96 43 -328 513 l-217 441 69 3 c38 2 69 5 69 8 0 2 -34 55
-75 117 -81 120 -243 298 -388 426 -79 70 -96 80 -182 109 -133 46 -204 50
-1000 62 -978 14 -1262 14 -1268 -4 -13 -34 -17 -112 -10 -233 l8 -133 -50 0
c-27 0 -61 -3 -75 -6 -23 -5 -24 -4 -7 9 17 14 17 17 2 53 -26 63 -73 250 -94
379 -80 480 -103 1122 -78 2135 0 8 -3 56 -7 105 l-7 90 151 54 c136 48 149
55 137 70 -8 9 -17 50 -21 96 -7 85 -21 151 -35 160 -5 2 -26 -1 -47 -8 -38
-14 -38 -14 -98 35 -33 26 -65 48 -71 48 -7 0 -348 -122 -760 -270 -411 -149
-749 -269 -751 -268 -7 8 -44 101 -44 113 0 8 51 29 133 55 679 214 921 294
975 325 l27 16 -30 -5 c-104 -17 -586 -68 -591 -63 -7 7 13 391 22 425 9 31
-4 27 -58 -17z m-722 -880 c13 -35 23 -66 21 -67 -10 -11 -3022 -1094 -3031
-1091 -13 5 -52 114 -44 122 10 10 1045 409 1738 670 391 148 1258 439 1284
432 4 -2 19 -31 32 -66z m1004 -1055 c0 -2 34 -257 75 -567 41 -310 73 -564
72 -566 -2 -1 -493 -5 -1093 -8 -599 -3 -1287 -7 -1529 -10 -346 -3 -435 -1
-416 8 44 22 2866 1145 2879 1146 6 1 12 -1 12 -3z m948 -2008 c17 -17 16
-142 -2 -157 -10 -8 -384 -10 -1402 -9 l-1389 3 -3 88 -3 87 1394 0 c1070 0
1396 -3 1405 -12z m-3518 -103 l0 -75 -1250 0 -1250 0 0 75 0 75 1250 0 1250
0 0 -75z m5270 -385 l0 -350 -545 0 -545 0 0 103 c0 56 -3 213 -7 350 l-6 247
551 0 552 0 0 -350z m394 12 c60 -185 111 -343 114 -349 3 -10 -43 -13 -212
-13 l-216 0 0 350 0 350 103 0 102 0 109 -338z m-2153 238 c16 -9 19 -22 19
-78 0 -40 -5 -73 -12 -80 -9 -9 -335 -12 -1405 -12 l-1393 0 0 84 c0 58 4 86
13 89 25 11 2758 7 2778 -3z m-3511 -115 l0 -75 -1247 2 -1248 3 -3 73 -3 72
1251 0 1250 0 0 -75z m3512 -132 c14 -12 18 -31 18 -78 0 -34 -5 -66 -12 -73
-9 -9 -335 -12 -1405 -12 l-1393 0 0 83 c0 46 3 87 7 90 3 4 627 7 1386 7
1270 0 1382 -1 1399 -17z m-3504 -103 l-3 -70 -1248 -3 -1247 -2 0 75 0 75
1250 -3 1251 -2 -3 -70z m3512 -140 c5 -8 10 -43 10 -77 0 -55 -3 -65 -23 -78
-21 -13 -180 -15 -1403 -13 l-1379 3 -3 87 c-2 76 -1 87 15 91 10 3 638 4
1396 3 1213 -1 1379 -3 1387 -16z m-3512 -102 l-3 -73 -1247 -3 -1248 -2 0 75
0 75 1250 0 1251 0 -3 -72z"/>
</g>
</svg>
